<svg xmlns="http://www.w3.org/2000/svg" width="202" height="202" viewBox="0 0 202 202">
  <g id="Group_15" data-name="Group 15" transform="translate(-859 -236)">
    <g id="Ellipse_6" data-name="Ellipse 6" transform="translate(859 236)" fill="none" stroke="#fff" stroke-width="3">
      <circle cx="101" cy="101" r="101" stroke="none"/>
      <circle cx="101" cy="101" r="99.5" fill="none"/>
    </g>
    <g id="Group_14" data-name="Group 14" transform="translate(909.126 288.37)">
      <g id="Subtraction_1" data-name="Subtraction 1" transform="translate(0 48.629)" fill="none">
        <path d="M101.686,48.276H0A50.91,50.91,0,0,1,85.962,14.054a50.758,50.758,0,0,1,15.724,34.222Z" stroke="none"/>
        <path d="M 97.28875732421875 44.27610015869141 C 96.64395904541016 39.70475006103516 95.33126831054688 35.28192138671875 93.36891937255859 31.08095169067383 C 90.88637542724609 25.76688575744629 87.46590423583984 21.01228523254395 83.2022705078125 16.9489688873291 C 74.44210815429688 8.598702430725098 62.95003890991211 4.000001907348633 50.84302139282227 4.000001907348633 C 38.73610305786133 4.000001907348633 27.24388885498047 8.598718643188477 18.48335456848145 16.94903564453125 C 14.21993827819824 21.01276779174805 10.79937171936035 25.76750183105469 8.316887855529785 31.08071899414063 C 6.354279041290283 35.28250122070313 5.041522026062012 39.7054328918457 4.396842956542969 44.27610015869141 L 97.28875732421875 44.27610015869141 M 101.6856689453125 48.27610015869141 L 4.954020369041245e-06 48.27610015869141 C 0.3357216119766235 41.68880081176758 1.915304899215698 35.33420181274414 4.692738056182861 29.38791847229004 C 7.386871814727783 23.62173461914063 11.09802150726318 18.46250152587891 15.72353839874268 14.05361843109131 C 25.23137092590332 4.991002082824707 37.70367050170898 1.986694314837223e-06 50.84302139282227 1.986694314837223e-06 C 63.98237228393555 1.986694314837223e-06 76.45467376708984 4.991002082824707 85.962158203125 14.05361843109131 C 90.58838653564453 18.46250152587891 94.29918670654297 23.62173461914063 96.99295806884766 29.38791847229004 C 99.77073669433594 35.33456802368164 101.3495864868164 41.68916702270508 101.6856689453125 48.27528381347656 L 101.6856689453125 48.27610015869141 Z" stroke="none" fill="#fff"/>
      </g>
      <g id="Ellipse_8" data-name="Ellipse 8" transform="translate(25.407 0)" fill="none" stroke="#fff" stroke-width="4">
        <ellipse cx="25.437" cy="25.811" rx="25.437" ry="25.811" stroke="none"/>
        <ellipse cx="25.437" cy="25.811" rx="23.437" ry="23.811" fill="none"/>
      </g>
    </g>
  </g>
</svg>
